<?xml version="1.0" encoding="UTF-8"?>
<svg width="81px" height="93px" viewBox="0 0 81 93" version="1.1" xmlns="http://www.w3.org/2000/svg" xmlns:xlink="http://www.w3.org/1999/xlink">
    <!-- Generator: Sketch 63.1 (92452) - https://sketch.com -->
    <title>im_error</title>
    <desc>Created with Sketch.</desc>
    <g id="Page-1" stroke="none" stroke-width="1" fill="none" fill-rule="evenodd" stroke-linecap="round">
        <g id="Error_Unknown" transform="translate(-261.000000, -188.000000)" stroke="#FFAB00">
            <g id="im_error" transform="translate(261.999108, 188.997895)">
                <path d="M78.8699447,53.1536842 C79.1141553,52.7621053 78.7057342,55.84 78.5078395,57.2126316 C78.4825763,57.4231579 78.4488921,57.6252632 78.4194184,57.8315789 C78.3604711,58.2147368 78.2973132,58.5936842 78.2299447,58.9684211 C76.9752079,65.8778947 73.8678395,72.5389474 68.8278395,78.1473684 C57.5057342,90.7663158 39.8678395,94.2905263 24.9962605,88.32 C24.7478395,88.2231579 24.5078395,88.1263158 24.263629,88.0252632 C23.5309974,87.7136842 22.8152079,87.3768421 22.103629,87.0231579 C21.4846816,86.72 20.8741553,86.4042105 20.263629,86.0673684 C19.9394184,85.8821053 19.623629,85.6926316 19.303629,85.4989474 C16.5331026,83.8526316 13.9015237,81.8821053 11.5225763,79.4989474 C2.05310264,70.0336842 -2.58689736,55.8105263 1.47626053,40.6778947 C4.32678685,53.9873684 14.5794184,54.6694737 14.5794184,54.6694737 C3.00047106,38.9094737 12.4362605,7.55789474 46.3857342,6.39488462e-14 C46.3857342,6.39488462e-14 32.4825763,18.1094737 43.7204711,29.3515789 C47.703629,33.3305263 55.2741553,32.7073684 59.223629,28.7621053 C61.1015237,26.8842105 62.0783658,24.4463158 62.1625763,21.9831579 C71.2278395,32.0547368 72.2299447,52.8968421 64.1373132,61.8231579 C64.1373132,61.8231579 71.5688921,64.96 78.8699447,53.1536842" id="Fill-1" fill-opacity="0.15" fill="#FFAB00" stroke-linejoin="round"></path>

            </g>
        </g>
    </g>
</svg>
